<svg width="28" height="28" viewBox="0 0 28 28" fill="none" xmlns="http://www.w3.org/2000/svg">
<g filter="url(#filter0_d_24_7)">
<path d="M14 10C12.625 10 11.4479 9.51042 10.4688 8.53125C9.48958 7.55208 9 6.375 9 5C9 3.625 9.48958 2.44792 10.4688 1.46875C11.4479 0.489583 12.625 0 14 0C15.375 0 16.5521 0.489583 17.5312 1.46875C18.5104 2.44792 19 3.625 19 5C19 6.375 18.5104 7.55208 17.5312 8.53125C16.5521 9.51042 15.375 10 14 10ZM4 20V16.5C4 15.7917 4.18229 15.1406 4.54688 14.5469C4.91146 13.9531 5.39583 13.5 6 13.1875C7.29167 12.5417 8.60417 12.0573 9.9375 11.7344C11.2708 11.4115 12.625 11.25 14 11.25C15.375 11.25 16.7292 11.4115 18.0625 11.7344C19.3958 12.0573 20.7083 12.5417 22 13.1875C22.6042 13.5 23.0885 13.9531 23.4531 14.5469C23.8177 15.1406 24 15.7917 24 16.5V20H4ZM6.5 17.5H21.5V16.5C21.5 16.2708 21.4427 16.0625 21.3281 15.875C21.2135 15.6875 21.0625 15.5417 20.875 15.4375C19.75 14.875 18.6146 14.4531 17.4688 14.1719C16.3229 13.8906 15.1667 13.75 14 13.75C12.8333 13.75 11.6771 13.8906 10.5312 14.1719C9.38542 14.4531 8.25 14.875 7.125 15.4375C6.9375 15.5417 6.78646 15.6875 6.67188 15.875C6.55729 16.0625 6.5 16.2708 6.5 16.5V17.5ZM14 7.5C14.6875 7.5 15.276 7.25521 15.7656 6.76562C16.2552 6.27604 16.5 5.6875 16.5 5C16.5 4.3125 16.2552 3.72396 15.7656 3.23438C15.276 2.74479 14.6875 2.5 14 2.5C13.3125 2.5 12.724 2.74479 12.2344 3.23438C11.7448 3.72396 11.5 4.3125 11.5 5C11.5 5.6875 11.7448 6.27604 12.2344 6.76562C12.724 7.25521 13.3125 7.5 14 7.5Z" fill="#EAECF2"/>
</g>
<defs>
<filter id="filter0_d_24_7" x="0" y="0" width="28" height="28" filterUnits="userSpaceOnUse" color-interpolation-filters="sRGB">
<feFlood flood-opacity="0" result="BackgroundImageFix"/>
<feColorMatrix in="SourceAlpha" type="matrix" values="0 0 0 0 0 0 0 0 0 0 0 0 0 0 0 0 0 0 127 0" result="hardAlpha"/>
<feOffset dy="4"/>
<feGaussianBlur stdDeviation="2"/>
<feComposite in2="hardAlpha" operator="out"/>
<feColorMatrix type="matrix" values="0 0 0 0 0 0 0 0 0 0 0 0 0 0 0 0 0 0 0.25 0"/>
<feBlend mode="normal" in2="BackgroundImageFix" result="effect1_dropShadow_24_7"/>
<feBlend mode="normal" in="SourceGraphic" in2="effect1_dropShadow_24_7" result="shape"/>
</filter>
</defs>
</svg>
