<svg width="147" height="80" viewBox="0 0 147 80" fill="none" xmlns="http://www.w3.org/2000/svg">
<path d="M27.48 65V63.8C28.8 63.72 29.78 63.56 30.42 63.32C31.1 63.08 31.54 62.6 31.74 61.88C31.98 61.16 32.1 60.08 32.1 58.64V28.88C32.1 27.4 31.98 26.32 31.74 25.64C31.54 24.92 31.1 24.44 30.42 24.2C29.78 23.92 28.8 23.76 27.48 23.72V22.52C28.56 22.56 29.9 22.6 31.5 22.64C33.1 22.68 34.7 22.7 36.3 22.7C38.06 22.7 39.7 22.68 41.22 22.64C42.78 22.6 44.02 22.56 44.94 22.52V23.72C43.66 23.76 42.68 23.92 42 24.2C41.36 24.44 40.92 24.92 40.68 25.64C40.44 26.32 40.32 27.4 40.32 28.88V58.64C40.32 60.08 40.44 61.16 40.68 61.88C40.92 62.6 41.36 63.08 42 63.32C42.68 63.56 43.66 63.72 44.94 63.8V65C44.02 64.92 42.78 64.88 41.22 64.88C39.7 64.84 38.06 64.82 36.3 64.82C34.7 64.82 33.1 64.84 31.5 64.88C29.9 64.88 28.56 64.92 27.48 65ZM2.16 65V63.8C3.48 63.72 4.46 63.56 5.1 63.32C5.78 63.08 6.22 62.6 6.42 61.88C6.66 61.16 6.78 60.08 6.78 58.64V28.88C6.78 27.4 6.66 26.32 6.42 25.64C6.22 24.92 5.78 24.44 5.1 24.2C4.46 23.92 3.48 23.76 2.16 23.72V22.52C3.16 22.56 4.44 22.6 6 22.64C7.56 22.68 9.24 22.7 11.04 22.7C12.64 22.7 14.22 22.68 15.78 22.64C17.34 22.6 18.62 22.56 19.62 22.52V23.72C18.34 23.76 17.36 23.92 16.68 24.2C16.04 24.44 15.6 24.92 15.36 25.64C15.12 26.32 15 27.4 15 28.88V58.64C15 60.08 15.12 61.16 15.36 61.88C15.6 62.6 16.04 63.08 16.68 63.32C17.36 63.56 18.34 63.72 19.62 63.8V65C18.62 64.92 17.34 64.88 15.78 64.88C14.22 64.84 12.64 64.82 11.04 64.82C9.24 64.82 7.56 64.84 6 64.88C4.44 64.88 3.16 64.92 2.16 65ZM11.7 44.24V43.04H35.4V44.24H11.7ZM62.7347 33.14C66.2547 33.14 69.0147 34.2 71.0147 36.32C73.0147 38.44 74.0147 41.82 74.0147 46.46H53.7947L53.7347 45.32H67.0547C67.1347 43.36 67.0147 41.56 66.6947 39.92C66.3747 38.24 65.8547 36.9 65.1347 35.9C64.4547 34.9 63.5547 34.4 62.4347 34.4C60.9147 34.4 59.5947 35.3 58.4747 37.1C57.3547 38.86 56.6547 41.76 56.3747 45.8L56.6147 46.16C56.5347 46.68 56.4747 47.24 56.4347 47.84C56.4347 48.44 56.4347 49.04 56.4347 49.64C56.4347 52.4 56.8347 54.68 57.6347 56.48C58.4347 58.28 59.4747 59.6 60.7547 60.44C62.0347 61.28 63.3547 61.7 64.7147 61.7C65.6347 61.7 66.5747 61.56 67.5347 61.28C68.4947 61 69.4347 60.48 70.3547 59.72C71.2747 58.96 72.1147 57.88 72.8747 56.48L74.0147 56.96C73.5747 58.36 72.8347 59.76 71.7947 61.16C70.7947 62.52 69.4947 63.64 67.8947 64.52C66.2947 65.4 64.4147 65.84 62.2547 65.84C59.5347 65.84 57.1347 65.24 55.0547 64.04C52.9747 62.84 51.3547 61.06 50.1947 58.7C49.0347 56.3 48.4547 53.38 48.4547 49.94C48.4547 46.3 49.0547 43.24 50.2547 40.76C51.4947 38.28 53.1947 36.4 55.3547 35.12C57.5147 33.8 59.9747 33.14 62.7347 33.14ZM69.0347 16.04C69.6347 16.56 69.9547 17.22 69.9947 18.02C70.0347 18.82 69.7347 19.64 69.0947 20.48C68.4947 21.24 67.7347 21.98 66.8147 22.7C65.9347 23.38 64.8747 24.2 63.6347 25.16C62.3947 26.12 60.9147 27.42 59.1947 29.06L58.5347 28.52C59.7347 26.44 60.6347 24.68 61.2347 23.24C61.8747 21.8 62.4147 20.56 62.8547 19.52C63.2947 18.48 63.8347 17.56 64.4747 16.76C65.1147 16 65.8547 15.56 66.6947 15.44C67.5747 15.32 68.3547 15.52 69.0347 16.04ZM89.1877 18.02V59.42C89.1877 61.1 89.4877 62.24 90.0877 62.84C90.7277 63.44 91.7877 63.74 93.2677 63.74V65C92.5477 64.96 91.4477 64.92 89.9677 64.88C88.5277 64.8 87.0477 64.76 85.5277 64.76C84.0477 64.76 82.5277 64.8 80.9677 64.88C79.4477 64.92 78.3077 64.96 77.5477 65V63.74C79.0277 63.74 80.0677 63.44 80.6677 62.84C81.3077 62.24 81.6277 61.1 81.6277 59.42V25.22C81.6277 23.42 81.3477 22.1 80.7877 21.26C80.2277 20.38 79.1477 19.94 77.5477 19.94V18.68C78.8277 18.8 80.0677 18.86 81.2677 18.86C82.7877 18.86 84.2077 18.8 85.5277 18.68C86.8477 18.52 88.0677 18.3 89.1877 18.02ZM103.512 18.68C104.952 18.68 106.132 19.08 107.052 19.88C107.972 20.68 108.432 21.74 108.432 23.06C108.432 24.38 107.972 25.44 107.052 26.24C106.132 27.04 104.952 27.44 103.512 27.44C102.072 27.44 100.892 27.04 99.9717 26.24C99.0517 25.44 98.5917 24.38 98.5917 23.06C98.5917 21.74 99.0517 20.68 99.9717 19.88C100.892 19.08 102.072 18.68 103.512 18.68ZM107.712 33.32V59.42C107.712 61.1 108.012 62.24 108.612 62.84C109.252 63.44 110.312 63.74 111.792 63.74V65C111.072 64.96 109.972 64.92 108.492 64.88C107.012 64.8 105.512 64.76 103.992 64.76C102.512 64.76 101.012 64.8 99.4917 64.88C97.9717 64.92 96.8317 64.96 96.0717 65V63.74C97.5517 63.74 98.5917 63.44 99.1917 62.84C99.8317 62.24 100.152 61.1 100.152 59.42V40.58C100.152 38.74 99.8517 37.4 99.2517 36.56C98.6917 35.68 97.6317 35.24 96.0717 35.24V33.98C97.3517 34.1 98.5917 34.16 99.7917 34.16C101.272 34.16 102.672 34.1 103.992 33.98C105.352 33.82 106.592 33.6 107.712 33.32ZM129.769 33.14C132.529 33.14 134.969 33.7 137.089 34.82C139.249 35.9 140.949 37.64 142.189 40.04C143.469 42.44 144.109 45.6 144.109 49.52C144.109 53.44 143.469 56.6 142.189 59C140.949 61.4 139.249 63.14 137.089 64.22C134.969 65.3 132.529 65.84 129.769 65.84C127.009 65.84 124.549 65.3 122.389 64.22C120.229 63.14 118.529 61.4 117.289 59C116.049 56.6 115.429 53.44 115.429 49.52C115.429 45.6 116.049 42.44 117.289 40.04C118.529 37.64 120.229 35.9 122.389 34.82C124.549 33.7 127.009 33.14 129.769 33.14ZM129.769 34.34C127.889 34.34 126.349 35.54 125.149 37.94C123.989 40.3 123.409 44.16 123.409 49.52C123.409 54.88 123.989 58.74 125.149 61.1C126.349 63.46 127.889 64.64 129.769 64.64C131.609 64.64 133.129 63.46 134.329 61.1C135.529 58.74 136.129 54.88 136.129 49.52C136.129 44.16 135.529 40.3 134.329 37.94C133.129 35.54 131.609 34.34 129.769 34.34Z" fill="#141414"/>
<path d="M85.86 70.37C86.2733 70.37 86.6367 70.4533 86.95 70.62C87.2633 70.78 87.51 70.99 87.69 71.25V70.46H89.1V76.04C89.1 76.5533 88.9967 77.01 88.79 77.41C88.5833 77.8167 88.2733 78.1367 87.86 78.37C87.4467 78.61 86.9467 78.73 86.36 78.73C85.5733 78.73 84.9267 78.5467 84.42 78.18C83.92 77.8133 83.6367 77.3133 83.57 76.68H84.96C85.0333 76.9333 85.19 77.1333 85.43 77.28C85.6767 77.4333 85.9733 77.51 86.32 77.51C86.7267 77.51 87.0567 77.3867 87.31 77.14C87.5633 76.9 87.69 76.5333 87.69 76.04V75.18C87.51 75.44 87.26 75.6567 86.94 75.83C86.6267 76.0033 86.2667 76.09 85.86 76.09C85.3933 76.09 84.9667 75.97 84.58 75.73C84.1933 75.49 83.8867 75.1533 83.66 74.72C83.44 74.28 83.33 73.7767 83.33 73.21C83.33 72.65 83.44 72.1533 83.66 71.72C83.8867 71.2867 84.19 70.9533 84.57 70.72C84.9567 70.4867 85.3867 70.37 85.86 70.37ZM87.69 73.23C87.69 72.89 87.6233 72.6 87.49 72.36C87.3567 72.1133 87.1767 71.9267 86.95 71.8C86.7233 71.6667 86.48 71.6 86.22 71.6C85.96 71.6 85.72 71.6633 85.5 71.79C85.28 71.9167 85.1 72.1033 84.96 72.35C84.8267 72.59 84.76 72.8767 84.76 73.21C84.76 73.5433 84.8267 73.8367 84.96 74.09C85.1 74.3367 85.28 74.5267 85.5 74.66C85.7267 74.7933 85.9667 74.86 86.22 74.86C86.48 74.86 86.7233 74.7967 86.95 74.67C87.1767 74.5367 87.3567 74.35 87.49 74.11C87.6233 73.8633 87.69 73.57 87.69 73.23ZM95.6973 70.46V76H94.2873V75.3C94.1073 75.54 93.8707 75.73 93.5773 75.87C93.2907 76.0033 92.9773 76.07 92.6373 76.07C92.204 76.07 91.8207 75.98 91.4873 75.8C91.154 75.6133 90.8907 75.3433 90.6973 74.99C90.5107 74.63 90.4173 74.2033 90.4173 73.71V70.46H91.8173V73.51C91.8173 73.95 91.9273 74.29 92.1473 74.53C92.3673 74.7633 92.6673 74.88 93.0473 74.88C93.434 74.88 93.7373 74.7633 93.9573 74.53C94.1773 74.29 94.2873 73.95 94.2873 73.51V70.46H95.6973ZM98.4787 68.6V76H97.0787V68.6H98.4787ZM102.322 76.09C101.789 76.09 101.309 75.9733 100.882 75.74C100.455 75.5 100.119 75.1633 99.8719 74.73C99.6319 74.2967 99.5119 73.7967 99.5119 73.23C99.5119 72.6633 99.6352 72.1633 99.8819 71.73C100.135 71.2967 100.479 70.9633 100.912 70.73C101.345 70.49 101.829 70.37 102.362 70.37C102.895 70.37 103.379 70.49 103.812 70.73C104.245 70.9633 104.585 71.2967 104.832 71.73C105.085 72.1633 105.212 72.6633 105.212 73.23C105.212 73.7967 105.082 74.2967 104.822 74.73C104.569 75.1633 104.222 75.5 103.782 75.74C103.349 75.9733 102.862 76.09 102.322 76.09ZM102.322 74.87C102.575 74.87 102.812 74.81 103.032 74.69C103.259 74.5633 103.439 74.3767 103.572 74.13C103.705 73.8833 103.772 73.5833 103.772 73.23C103.772 72.7033 103.632 72.3 103.352 72.02C103.079 71.7333 102.742 71.59 102.342 71.59C101.942 71.59 101.605 71.7333 101.332 72.02C101.065 72.3 100.932 72.7033 100.932 73.23C100.932 73.7567 101.062 74.1633 101.322 74.45C101.589 74.73 101.922 74.87 102.322 74.87ZM108.359 76.09C107.905 76.09 107.499 76.01 107.139 75.85C106.779 75.6833 106.492 75.46 106.279 75.18C106.072 74.9 105.959 74.59 105.939 74.25H107.349C107.375 74.4633 107.479 74.64 107.659 74.78C107.845 74.92 108.075 74.99 108.349 74.99C108.615 74.99 108.822 74.9367 108.969 74.83C109.122 74.7233 109.199 74.5867 109.199 74.42C109.199 74.24 109.105 74.1067 108.919 74.02C108.739 73.9267 108.449 73.8267 108.049 73.72C107.635 73.62 107.295 73.5167 107.029 73.41C106.769 73.3033 106.542 73.14 106.349 72.92C106.162 72.7 106.069 72.4033 106.069 72.03C106.069 71.7233 106.155 71.4433 106.329 71.19C106.509 70.9367 106.762 70.7367 107.089 70.59C107.422 70.4433 107.812 70.37 108.259 70.37C108.919 70.37 109.445 70.5367 109.839 70.87C110.232 71.1967 110.449 71.64 110.489 72.2H109.149C109.129 71.98 109.035 71.8067 108.869 71.68C108.709 71.5467 108.492 71.48 108.219 71.48C107.965 71.48 107.769 71.5267 107.629 71.62C107.495 71.7133 107.429 71.8433 107.429 72.01C107.429 72.1967 107.522 72.34 107.709 72.44C107.895 72.5333 108.185 72.63 108.579 72.73C108.979 72.83 109.309 72.9333 109.569 73.04C109.829 73.1467 110.052 73.3133 110.239 73.54C110.432 73.76 110.532 74.0533 110.539 74.42C110.539 74.74 110.449 75.0267 110.269 75.28C110.095 75.5333 109.842 75.7333 109.509 75.88C109.182 76.02 108.799 76.09 108.359 76.09ZM116.838 73.11C116.838 73.31 116.825 73.49 116.798 73.65H112.748C112.781 74.05 112.921 74.3633 113.168 74.59C113.415 74.8167 113.718 74.93 114.078 74.93C114.598 74.93 114.968 74.7067 115.188 74.26H116.698C116.538 74.7933 116.231 75.2333 115.778 75.58C115.325 75.92 114.768 76.09 114.108 76.09C113.575 76.09 113.095 75.9733 112.668 75.74C112.248 75.5 111.918 75.1633 111.678 74.73C111.445 74.2967 111.328 73.7967 111.328 73.23C111.328 72.6567 111.445 72.1533 111.678 71.72C111.911 71.2867 112.238 70.9533 112.658 70.72C113.078 70.4867 113.561 70.37 114.108 70.37C114.635 70.37 115.105 70.4833 115.518 70.71C115.938 70.9367 116.261 71.26 116.488 71.68C116.721 72.0933 116.838 72.57 116.838 73.11ZM115.388 72.71C115.381 72.35 115.251 72.0633 114.998 71.85C114.745 71.63 114.435 71.52 114.068 71.52C113.721 71.52 113.428 71.6267 113.188 71.84C112.955 72.0467 112.811 72.3367 112.758 72.71H115.388ZM118.57 69.8C118.323 69.8 118.117 69.7233 117.95 69.57C117.79 69.41 117.71 69.2133 117.71 68.98C117.71 68.7467 117.79 68.5533 117.95 68.4C118.117 68.24 118.323 68.16 118.57 68.16C118.817 68.16 119.02 68.24 119.18 68.4C119.347 68.5533 119.43 68.7467 119.43 68.98C119.43 69.2133 119.347 69.41 119.18 69.57C119.02 69.7233 118.817 69.8 118.57 69.8ZM119.26 70.46V76H117.86V70.46H119.26ZM127.523 70.38C128.203 70.38 128.75 70.59 129.163 71.01C129.583 71.4233 129.793 72.0033 129.793 72.75V76H128.393V72.94C128.393 72.5067 128.283 72.1767 128.063 71.95C127.843 71.7167 127.543 71.6 127.163 71.6C126.783 71.6 126.48 71.7167 126.253 71.95C126.033 72.1767 125.923 72.5067 125.923 72.94V76H124.523V72.94C124.523 72.5067 124.413 72.1767 124.193 71.95C123.973 71.7167 123.673 71.6 123.293 71.6C122.906 71.6 122.6 71.7167 122.373 71.95C122.153 72.1767 122.043 72.5067 122.043 72.94V76H120.643V70.46H122.043V71.13C122.223 70.8967 122.453 70.7133 122.733 70.58C123.02 70.4467 123.333 70.38 123.673 70.38C124.106 70.38 124.493 70.4733 124.833 70.66C125.173 70.84 125.436 71.1 125.623 71.44C125.803 71.12 126.063 70.8633 126.403 70.67C126.75 70.4767 127.123 70.38 127.523 70.38ZM130.762 73.21C130.762 72.65 130.872 72.1533 131.092 71.72C131.318 71.2867 131.622 70.9533 132.002 70.72C132.388 70.4867 132.818 70.37 133.292 70.37C133.705 70.37 134.065 70.4533 134.372 70.62C134.685 70.7867 134.935 70.9967 135.122 71.25V70.46H136.532V76H135.122V75.19C134.942 75.45 134.692 75.6667 134.372 75.84C134.058 76.0067 133.695 76.09 133.282 76.09C132.815 76.09 132.388 75.97 132.002 75.73C131.622 75.49 131.318 75.1533 131.092 74.72C130.872 74.28 130.762 73.7767 130.762 73.21ZM135.122 73.23C135.122 72.89 135.055 72.6 134.922 72.36C134.788 72.1133 134.608 71.9267 134.382 71.8C134.155 71.6667 133.912 71.6 133.652 71.6C133.392 71.6 133.152 71.6633 132.932 71.79C132.712 71.9167 132.532 72.1033 132.392 72.35C132.258 72.59 132.192 72.8767 132.192 73.21C132.192 73.5433 132.258 73.8367 132.392 74.09C132.532 74.3367 132.712 74.5267 132.932 74.66C133.158 74.7933 133.398 74.86 133.652 74.86C133.912 74.86 134.155 74.7967 134.382 74.67C134.608 74.5367 134.788 74.35 134.922 74.11C135.055 73.8633 135.122 73.57 135.122 73.23ZM140.019 76.09C139.566 76.09 139.159 76.01 138.799 75.85C138.439 75.6833 138.152 75.46 137.939 75.18C137.732 74.9 137.619 74.59 137.599 74.25H139.009C139.036 74.4633 139.139 74.64 139.319 74.78C139.506 74.92 139.736 74.99 140.009 74.99C140.276 74.99 140.482 74.9367 140.629 74.83C140.782 74.7233 140.859 74.5867 140.859 74.42C140.859 74.24 140.766 74.1067 140.579 74.02C140.399 73.9267 140.109 73.8267 139.709 73.72C139.296 73.62 138.956 73.5167 138.689 73.41C138.429 73.3033 138.202 73.14 138.009 72.92C137.822 72.7 137.729 72.4033 137.729 72.03C137.729 71.7233 137.816 71.4433 137.989 71.19C138.169 70.9367 138.422 70.7367 138.749 70.59C139.082 70.4433 139.472 70.37 139.919 70.37C140.579 70.37 141.106 70.5367 141.499 70.87C141.892 71.1967 142.109 71.64 142.149 72.2H140.809C140.789 71.98 140.696 71.8067 140.529 71.68C140.369 71.5467 140.152 71.48 139.879 71.48C139.626 71.48 139.429 71.5267 139.289 71.62C139.156 71.7133 139.089 71.8433 139.089 72.01C139.089 72.1967 139.182 72.34 139.369 72.44C139.556 72.5333 139.846 72.63 140.239 72.73C140.639 72.83 140.969 72.9333 141.229 73.04C141.489 73.1467 141.712 73.3133 141.899 73.54C142.092 73.76 142.192 74.0533 142.199 74.42C142.199 74.74 142.109 75.0267 141.929 75.28C141.756 75.5333 141.502 75.7333 141.169 75.88C140.842 76.02 140.459 76.09 140.019 76.09Z" fill="#141414"/>
</svg>
